<svg xmlns="http://www.w3.org/2000/svg" viewBox="0 0 860 420" width="860" height="420">
<defs>
  <linearGradient id="glow" x1="0%" y1="0%" x2="100%" y2="0%">
    <stop offset="0%" stop-color="#00ff88" stop-opacity="0"/>
    <stop offset="50%" stop-color="#00ff88" stop-opacity="1"/>
    <stop offset="100%" stop-color="#00ff88" stop-opacity="0"/>
  </linearGradient>
  <linearGradient id="blue-glow" x1="0%" y1="0%" x2="0%" y2="100%">
    <stop offset="0%" stop-color="#58a6ff" stop-opacity="0.8"/>
    <stop offset="100%" stop-color="#58a6ff" stop-opacity="0"/>
  </linearGradient>
  <filter id="blur">
    <feGaussianBlur stdDeviation="2"/>
  </filter>
</defs>

<style>
  @keyframes scan { 0%{y:-10} 100%{y:430} }
  @keyframes pulse { 0%,100%{opacity:0.4} 50%{opacity:1} }
  @keyframes glitch1 { 0%,90%,100%{transform:translate(0)} 92%{transform:translate(-3px,1px)} 94%{transform:translate(3px,-1px)} 96%{transform:translate(-1px,2px)} }
  @keyframes glitch2 { 0%,88%,100%{transform:translate(0)} 90%{transform:translate(2px,-1px)} 93%{transform:translate(-2px,1px)} 95%{transform:translate(1px,-2px)} }
  @keyframes type { from{width:0} to{width:100%} }
  @keyframes blink { 0%,100%{opacity:1} 50%{opacity:0} }
  @keyframes slideUp { from{opacity:0;transform:translateY(15px)} to{opacity:1;transform:translateY(0)} }
  @keyframes dataFlow { 0%{transform:translateY(0)} 100%{transform:translateY(-50px)} }
  @keyframes orbit { 0%{transform:rotate(0deg) translateX(60px) rotate(0deg)} 100%{transform:rotate(360deg) translateX(60px) rotate(-360deg)} }
  @keyframes wave { 0%,100%{d:path("M0,20 Q40,5 80,20 T160,20")} 50%{d:path("M0,20 Q40,35 80,20 T160,20")} }
  .scan { animation: scan 3s linear infinite; }
  .pulse { animation: pulse 2s infinite; }
  .glitch1 { animation: glitch1 4s infinite; }
  .glitch2 { animation: glitch2 4s 0.1s infinite; }
  .blink { animation: blink 1s infinite; }
  .s1 { animation: slideUp 0.4s ease-out 0.6s forwards; opacity:0; }
  .s2 { animation: slideUp 0.4s ease-out 0.8s forwards; opacity:0; }
  .s3 { animation: slideUp 0.4s ease-out 1.0s forwards; opacity:0; }
  .s4 { animation: slideUp 0.4s ease-out 1.2s forwards; opacity:0; }
  .s5 { animation: slideUp 0.4s ease-out 1.4s forwards; opacity:0; }
  .s6 { animation: slideUp 0.4s ease-out 1.6s forwards; opacity:0; }
  .s7 { animation: slideUp 0.4s ease-out 1.8s forwards; opacity:0; }
  .dflow { animation: dataFlow 8s linear infinite; }
  text { font-family: 'Courier New', 'Lucida Console', monospace; }
</style>

<!-- BG -->
<rect width="860" height="420" rx="8" fill="#060a10"/>

<!-- Animated grid -->
<g opacity="0.04" stroke="#00ff88" stroke-width="0.3">
  <line x1="0" y1="0" x2="0" y2="420"><animate attributeName="x1" values="0;860" dur="60s" repeatCount="indefinite"/></line>
  <line x1="860" y1="0" x2="860" y2="420"><animate attributeName="x1" values="860;0" dur="60s" repeatCount="indefinite"/></line>
  <line x1="0" y1="0" x2="860" y2="0"><animate attributeName="y1" values="0;420" dur="45s" repeatCount="indefinite"/></line>
  <line x1="0" y1="420" x2="860" y2="420"><animate attributeName="y1" values="420;0" dur="45s" repeatCount="indefinite"/></line>
</g>

<!-- Matrix rain - left -->
<g font-size="10" fill="#00ff88" opacity="0.08">
  <text x="15" y="20" class="dflow">01001</text>
  <text x="15" y="40" class="dflow" style="animation-delay:1s">10110</text>
  <text x="15" y="60" class="dflow" style="animation-delay:2s">01101</text>
  <text x="15" y="80" class="dflow" style="animation-delay:3s">11001</text>
  <text x="15" y="100" class="dflow" style="animation-delay:4s">00110</text>
  <text x="15" y="120" class="dflow" style="animation-delay:5s">10101</text>
  <text x="15" y="140" class="dflow" style="animation-delay:6s">01011</text>
  <text x="30" y="30" class="dflow" style="animation-delay:0.5s">11010</text>
  <text x="30" y="50" class="dflow" style="animation-delay:1.5s">00101</text>
  <text x="30" y="70" class="dflow" style="animation-delay:2.5s">10011</text>
  <text x="30" y="90" class="dflow" style="animation-delay:3.5s">01110</text>
  <text x="30" y="110" class="dflow" style="animation-delay:4.5s">11000</text>
</g>

<!-- Matrix rain - right -->
<g font-size="10" fill="#00ff88" opacity="0.08">
  <text x="810" y="20" class="dflow">10110</text>
  <text x="810" y="40" class="dflow" style="animation-delay:1.2s">01001</text>
  <text x="810" y="60" class="dflow" style="animation-delay:2.2s">11010</text>
  <text x="810" y="80" class="dflow" style="animation-delay:3.2s">00101</text>
  <text x="810" y="100" class="dflow" style="animation-delay:4.2s">10101</text>
  <text x="810" y="120" class="dflow" style="animation-delay:5.2s">01010</text>
  <text x="810" y="140" class="dflow" style="animation-delay:6.2s">11001</text>
  <text x="825" y="30" class="dflow" style="animation-delay:0.8s">01101</text>
  <text x="825" y="50" class="dflow" style="animation-delay:1.8s">10011</text>
  <text x="825" y="70" class="dflow" style="animation-delay:2.8s">00110</text>
  <text x="825" y="90" class="dflow" style="animation-delay:3.8s">11100</text>
</g>

<!-- Scan line -->
<rect x="0" y="0" width="860" height="3" fill="url(#glow)" opacity="0.15" class="scan"/>

<!-- Corner accents -->
<g stroke="#00ff88" stroke-width="2" fill="none" opacity="0.6">
  <path d="M20,20 L20,55 M20,20 L55,20"/>
  <path d="M840,20 L840,55 M840,20 L805,20"/>
  <path d="M20,400 L20,365 M20,400 L55,400"/>
  <path d="M840,400 L840,365 M840,400 L805,400"/>
</g>

<!-- Horizontal accent lines -->
<line x1="60" y1="60" x2="250" y2="60" stroke="#00ff88" stroke-width="1" opacity="0.3"/>
<line x1="610" y1="60" x2="800" y2="60" stroke="#00ff88" stroke-width="1" opacity="0.3"/>

<!-- HARDIK - large glitchy -->
<g font-size="48" font-weight="bold" fill="#00ff88">
  <g class="glitch1" opacity="0.15">
    <text x="140" y="115" fill="#ff0040">HARDIK</text>
  </g>
  <g class="glitch2" opacity="0.15">
    <text x="144" y="112" fill="#00f0ff">HARDIK</text>
  </g>
  <text x="142" y="114" opacity="0.95">HARDIK</text>
</g>

<!-- MIGLANI -->
<g font-size="14" fill="#484f58" letter-spacing="12" opacity="0">
  <animate attributeName="opacity" from="0" to="0.7" dur="0.3s" begin="0.4s" fill="freeze"/>
  <text x="142" y="135">MIGLANI</text>
</g>

<!-- Underline with glow -->
<line x1="142" y1="148" x2="420" y2="148" stroke="#00ff88" stroke-width="2" opacity="0">
  <animate attributeName="opacity" from="0" to="0.8" dur="0.3s" begin="0.5s" fill="freeze"/>
  <animate attributeName="x2" from="142" to="420" dur="0.5s" begin="0.5s" fill="freeze"/>
</line>
<line x1="142" y1="148" x2="420" y2="148" stroke="#00ff88" stroke-width="6" filter="url(#blur)" opacity="0">
  <animate attributeName="opacity" from="0" to="0.3" dur="0.3s" begin="0.5s" fill="freeze"/>
  <animate attributeName="x2" from="142" to="420" dur="0.5s" begin="0.5s" fill="freeze"/>
</line>

<!-- Right side - hexagonal element -->
<g transform="translate(680, 100)" opacity="0">
  <animate attributeName="opacity" from="0" to="0.4" dur="0.5s" begin="0.6s" fill="freeze"/>
  <polygon points="0,-40 35,-20 35,20 0,40 -35,20 -35,-20" fill="none" stroke="#00ff88" stroke-width="1"/>
  <polygon points="0,-25 22,-12 22,12 0,25 -22,12 -22,-12" fill="none" stroke="#00ff88" stroke-width="0.5"/>
  <circle cx="0" cy="0" r="3" fill="#00ff88" class="pulse"/>
  <animateTransform attributeName="transform" type="rotate" from="0 680 100" to="360 680 100" dur="20s" repeatCount="indefinite"/>
</g>

<!-- Info panel -->
<rect x="80" y="175" width="700" height="160" rx="4" fill="#0a0e14" stroke="#1a2332" stroke-width="1"/>

<!-- Panel header -->
<rect x="80" y="175" width="700" height="24" rx="4" fill="#0d1117"/>
<text x="95" y="191" font-size="10" fill="#484f58">PROFILE.SYS</text>
<circle cx="830" cy="187" r="4" fill="#39d353" class="pulse"/>
<text x="818" y="191" font-size="9" fill="#39d353">LIVE</text>

<!-- Data rows -->
<g font-size="12">
  <g class="s1">
    <rect x="95" y="210" width="3" height="14" fill="#00ff88"/>
    <text x="108" y="221" fill="#00ff88">ROLE</text>
    <line x1="165" y1="217" x2="165" y2="221" stroke="#1a2332"/>
    <text x="175" y="221" fill="#c9d1d9">Technical Program Manager @ Kodo</text>
  </g>
  <g class="s2">
    <rect x="95" y="235" width="3" height="14" fill="#58a6ff"/>
    <text x="108" y="246" fill="#58a6ff">STACK</text>
    <line x1="165" y1="242" x2="165" y2="246" stroke="#1a2332"/>
    <text x="175" y="246" fill="#c9d1d9">Python • Node.js • SQL • REST APIs • AI Agents</text>
  </g>
  <g class="s3">
    <rect x="95" y="260" width="3" height="14" fill="#f0883e"/>
    <text x="108" y="271" fill="#f0883e">DOMAIN</text>
    <line x1="165" y1="267" x2="165" y2="271" stroke="#1a2332"/>
    <text x="175" y="271" fill="#c9d1d9">Fixed Income • Credit Cards • Prepaid Instruments</text>
  </g>
  <g class="s4">
    <rect x="95" y="285" width="3" height="14" fill="#bc8cff"/>
    <text x="108" y="296" fill="#bc8cff">INFRA</text>
    <line x1="165" y1="292" x2="165" y2="296" stroke="#1a2332"/>
    <text x="175" y="296" fill="#c9d1d9">Banking Infra • Connected Banking • Reconciliation</text>
  </g>
  <g class="s5">
    <rect x="95" y="310" width="3" height="14" fill="#39d353"/>
    <text x="108" y="321" fill="#39d353">STATUS</text>
    <line x1="165" y1="317" x2="165" y2="321" stroke="#1a2332"/>
    <circle cx="183" cy="317" r="4" fill="#39d353" class="pulse"/>
    <text x="195" y="321" fill="#39d353">OPEN TO OPPORTUNITIES</text>
  </g>
</g>

<!-- Bottom status bar -->
<rect x="0" y="350" width="860" height="30" fill="#0a0e14" opacity="0.8"/>
<line x1="0" y1="350" x2="860" y2="350" stroke="#1a2332" stroke-width="1"/>

<g font-size="10" fill="#484f58">
  <text x="20" y="369">NODE:ACTIVE</text>
  <text x="140" y="369">REPOS:11</text>
  <text x="250" y="369">LANG:TS/PY</text>
  <text x="380" y="369">API:HEALTHY</text>
  
  <circle cx="490" cy="366" r="3" fill="#39d353" class="blink"/>
  <text x="500" y="369" fill="#39d353">OPERATIONAL</text>
  
  <text x="680" y="369" fill="#00ff88" class="blink">▮</text>
</g>

</svg>