<svg xmlns="http://www.w3.org/2000/svg" viewBox="0 0 860 300" width="860" height="300">
<rect width="860" height="300" rx="6" fill="#0d1117"/>
<rect x="0.5" y="0.5" width="859" height="299" rx="6" fill="none" stroke="#21262d"/>

<!-- Top accent -->
<rect x="0" y="0" width="860" height="2" fill="#58a6ff"/>

<!-- Name -->
<text x="48" y="60" font-size="28" font-weight="600" fill="#f0f6fc" font-family="-apple-system,BlinkMacSystemFont,Sans-Serif">Hardik Miglani</text>
<text x="48" y="85" font-size="14" fill="#8b949e" font-family="-apple-system,BlinkMacSystemFont,Sans-Serif">Technical Program Manager @ Kodo</text>

<!-- Divider -->
<rect x="48" y="100" width="100" height="1" fill="#21262d"/>

<!-- Info -->
<g font-size="12" font-family="-apple-system,BlinkMacSystemFont,Sans-Serif">
  <text x="48" y="130" fill="#484f58" font-family="monospace">STACK</text>
  <text x="140" y="130" fill="#c9d1d9">Python, Node.js, SQL, REST APIs, AI Agents</text>
  <text x="48" y="155" fill="#484f58" font-family="monospace">DOMAIN</text>
  <text x="140" y="155" fill="#c9d1d9">Fixed Income, Credit Cards, Prepaid Instruments</text>
  <text x="48" y="180" fill="#484f58" font-family="monospace">INFRA</text>
  <text x="140" y="180" fill="#c9d1d9">Banking Infra, Connected Banking, Reconciliation</text>
  <text x="48" y="205" fill="#484f58" font-family="monospace">STATUS</text>
  <text x="140" y="205" fill="#c9d1d9">Still learning, always building.</text>
</g>

<!-- Right side heatmap -->
<g transform="translate(540, 40)">
  <rect x="0" y="0" width="280" height="220" rx="6" fill="#161b22" stroke="#21262d"/>
  <text x="20" y="28" font-size="10" fill="#484f58" font-family="monospace" letter-spacing="1">CONTRIBUTIONS</text>
  
  <!-- Heatmap -->
  <g transform="translate(20, 40)">
    <rect width="10" height="10" rx="2" fill="#161b22"/><rect x="14" width="10" height="10" rx="2" fill="#161b22"/>
    <rect x="28" width="10" height="10" rx="2" fill="#0e4429"/><rect x="42" width="10" height="10" rx="2" fill="#161b22"/>
    <rect x="56" width="10" height="10" rx="2" fill="#161b22"/><rect x="70" width="10" height="10" rx="2" fill="#0e4429"/>
    <rect x="84" width="10" height="10" rx="2" fill="#161b22"/><rect x="98" width="10" height="10" rx="2" fill="#161b22"/>
    <rect x="112" width="10" height="10" rx="2" fill="#161b22"/><rect x="126" width="10" height="10" rx="2" fill="#0e4429"/>
    <rect x="140" width="10" height="10" rx="2" fill="#161b22"/><rect x="154" width="10" height="10" rx="2" fill="#161b22"/>
    <rect x="168" width="10" height="10" rx="2" fill="#161b22"/><rect x="182" width="10" height="10" rx="2" fill="#0e4429"/>
    <rect x="196" width="10" height="10" rx="2" fill="#161b22"/>
    
    <rect y="14" width="10" height="10" rx="2" fill="#161b22"/><rect x="14" y="14" width="10" height="10" rx="2" fill="#161b22"/>
    <rect x="28" y="14" width="10" height="10" rx="2" fill="#161b22"/><rect x="42" y="14" width="10" height="10" rx="2" fill="#0e4429"/>
    <rect x="56" y="14" width="10" height="10" rx="2" fill="#161b22"/><rect x="70" y="14" width="10" height="10" rx="2" fill="#161b22"/>
    <rect x="84" y="14" width="10" height="10" rx="2" fill="#161b22"/><rect x="98" y="14" width="10" height="10" rx="2" fill="#0e4429"/>
    <rect x="112" y="14" width="10" height="10" rx="2" fill="#161b22"/><rect x="126" y="14" width="10" height="10" rx="2" fill="#161b22"/>
    <rect x="140" y="14" width="10" height="10" rx="2" fill="#161b22"/><rect x="154" y="14" width="10" height="10" rx="2" fill="#161b22"/>
    <rect x="168" y="14" width="10" height="10" rx="2" fill="#0e4429"/><rect x="182" y="14" width="10" height="10" rx="2" fill="#161b22"/>
    <rect x="196" y="14" width="10" height="10" rx="2" fill="#161b22"/>
    
    <rect y="28" width="10" height="10" rx="2" fill="#161b22"/><rect x="14" y="28" width="10" height="10" rx="2" fill="#0e4429"/>
    <rect x="28" y="28" width="10" height="10" rx="2" fill="#161b22"/><rect x="42" y="28" width="10" height="10" rx="2" fill="#161b22"/>
    <rect x="56" y="28" width="10" height="10" rx="2" fill="#161b22"/><rect x="70" y="28" width="10" height="10" rx="2" fill="#161b22"/>
    <rect x="84" y="28" width="10" height="10" rx="2" fill="#0e4429"/><rect x="98" y="28" width="10" height="10" rx="2" fill="#161b22"/>
    <rect x="112" y="28" width="10" height="10" rx="2" fill="#161b22"/><rect x="126" y="28" width="10" height="10" rx="2" fill="#161b22"/>
    <rect x="140" y="28" width="10" height="10" rx="2" fill="#0e4429"/><rect x="154" y="28" width="10" height="10" rx="2" fill="#161b22"/>
    <rect x="168" y="28" width="10" height="10" rx="2" fill="#161b22"/><rect x="182" y="28" width="10" height="10" rx="2" fill="#161b22"/>
    <rect x="196" y="28" width="10" height="10" rx="2" fill="#161b22"/>
    
    <rect y="42" width="10" height="10" rx="2" fill="#161b22"/><rect x="14" y="42" width="10" height="10" rx="2" fill="#161b22"/>
    <rect x="28" y="42" width="10" height="10" rx="2" fill="#161b22"/><rect x="42" y="42" width="10" height="10" rx="2" fill="#161b22"/>
    <rect x="56" y="42" width="10" height="10" rx="2" fill="#0e4429"/><rect x="70" y="42" width="10" height="10" rx="2" fill="#161b22"/>
    <rect x="84" y="42" width="10" height="10" rx="2" fill="#161b22"/><rect x="98" y="42" width="10" height="10" rx="2" fill="#161b22"/>
    <rect x="112" y="42" width="10" height="10" rx="2" fill="#161b22"/><rect x="126" y="42" width="10" height="10" rx="2" fill="#161b22"/>
    <rect x="140" y="42" width="10" height="10" rx="2" fill="#161b22"/><rect x="154" y="42" width="10" height="10" rx="2" fill="#0e4429"/>
    <rect x="168" y="42" width="10" height="10" rx="2" fill="#161b22"/><rect x="182" y="42" width="10" height="10" rx="2" fill="#161b22"/>
    <rect x="196" y="42" width="10" height="10" rx="2" fill="#161b22"/>
    
    <rect y="56" width="10" height="10" rx="2" fill="#161b22"/><rect x="14" y="56" width="10" height="10" rx="2" fill="#161b22"/>
    <rect x="28" y="56" width="10" height="10" rx="2" fill="#161b22"/><rect x="42" y="56" width="10" height="10" rx="2" fill="#161b22"/>
    <rect x="56" y="56" width="10" height="10" rx="2" fill="#161b22"/><rect x="70" y="56" width="10" height="10" rx="2" fill="#0e4429"/>
    <rect x="84" y="56" width="10" height="10" rx="2" fill="#161b22"/><rect x="98" y="56" width="10" height="10" rx="2" fill="#161b22"/>
    <rect x="112" y="56" width="10" height="10" rx="2" fill="#0e4429"/><rect x="126" y="56" width="10" height="10" rx="2" fill="#161b22"/>
    <rect x="140" y="56" width="10" height="10" rx="2" fill="#161b22"/><rect x="154" y="56" width="10" height="10" rx="2" fill="#161b22"/>
    <rect x="168" y="56" width="10" height="10" rx="2" fill="#161b22"/><rect x="182" y="56" width="10" height="10" rx="2" fill="#161b22"/>
    <rect x="196" y="56" width="10" height="10" rx="2" fill="#0e4429"/>
  </g>
  
  <!-- Legend -->
  <g transform="translate(20, 125)" font-size="9" fill="#484f58" font-family="monospace">
    <rect width="10" height="10" rx="2" fill="#161b22" stroke="#21262d"/><text x="14" y="9">Less</text>
    <rect x="50" width="10" height="10" rx="2" fill="#0e4429"/>
    <rect x="64" width="10" height="10" rx="2" fill="#006d32"/>
    <rect x="78" width="10" height="10" rx="2" fill="#26a641"/>
    <rect x="92" width="10" height="10" rx="2" fill="#39d353"/>
    <text x="108" y="9">More</text>
  </g>
  
  <!-- Stats -->
  <text x="20" y="165" font-size="18" font-weight="600" fill="#f0f6fc" font-family="monospace">31</text>
  <text x="45" y="165" font-size="10" fill="#484f58" font-family="monospace">contributions this year</text>
  <text x="20" y="190" font-size="18" font-weight="600" fill="#f0f6fc" font-family="monospace">11</text>
  <text x="40" y="190" font-size="10" fill="#484f58" font-family="monospace">public repos</text>
</g>

</svg>